<?xml version="1.0" encoding="utf-8"?>
<!-- Generator: Adobe Illustrator 15.0.0, SVG Export Plug-In . SVG Version: 6.00 Build 0)  -->
<!DOCTYPE svg PUBLIC "-//W3C//DTD SVG 1.1//EN" "http://www.w3.org/Graphics/SVG/1.1/DTD/svg11.dtd">
<svg version="1.1" xmlns="http://www.w3.org/2000/svg" xmlns:xlink="http://www.w3.org/1999/xlink" x="0px" y="0px"
	 width="558.917px" height="141.417px" viewBox="0 0 558.917 141.417" enable-background="new 0 0 558.917 141.417"
	 xml:space="preserve">
<g id="Footer">
</g>
<g id="Black">
</g>
<g id="Red__x28_1797_U_x29_">
	<g>
		<path fill="#C32128" d="M124.935,130.508l-6.588-17.907c0,0-10.705,11.939-26.758,11.939c-14.205,0-24.29-12.352-24.29-32.112
			c0-25.317,12.761-34.375,25.319-34.375c18.112,0,23.876,11.733,28.817,26.76l6.588,20.584
			c6.585,19.966,18.936,36.021,54.545,36.021c25.526,0,42.816-7.821,42.816-28.404c0-16.673-9.47-25.318-27.172-29.436
			l-13.173-2.883c-9.056-2.058-11.732-5.763-11.732-11.938c0-6.999,5.557-11.115,14.615-11.115c9.88,0,15.231,3.705,16.055,12.556
			l20.583-2.47c-1.647-18.525-14.408-26.142-35.405-26.142c-18.524,0-36.639,6.999-36.639,29.435
			c0,13.998,6.793,22.85,23.875,26.966l13.999,3.293c10.498,2.471,13.996,6.792,13.996,12.763c0,7.614-7.41,10.702-21.407,10.702
			c-20.79,0-29.434-10.909-34.375-25.936l-6.793-20.583c-8.644-26.76-22.436-36.64-49.814-36.64
			c-30.257,0-46.314,19.143-46.314,51.665c0,31.289,16.057,48.166,44.875,48.166C113.818,141.417,124.935,130.508,124.935,130.508
			L124.935,130.508z"/>
		<path fill="#C32128" d="M36.847,120.832c-2.058,0.619-4.117,1.03-6.793,1.03c-4.94,0-8.439-2.264-8.439-8.234V1.44H0v117.334
			c0,15.438,10.705,21.822,23.26,21.822c4.118,0,8.029-0.62,12.969-1.853L36.847,120.832L36.847,120.832z"/>
		<path fill="#C32128" d="M297.223,117.54c-5.351,3.706-9.88,5.56-16.056,5.56c-7.822,0-12.145-4.117-12.145-14.204v-48.17h28.407
			V43.847h-28.202V20.996l-21.819,2.677v20.174h-13.792v16.879h13.792v52.697c0,18.941,10.909,27.994,28.612,27.994
			c9.676,0,18.32-1.85,25.113-5.761L297.223,117.54L297.223,117.54z"/>
		<path fill="#C32128" d="M315.997,124.949c0,8.441,6.588,15.234,15.026,15.234c8.853,0,15.439-6.793,15.439-15.234
			c0-8.645-6.587-15.229-15.439-15.229C322.585,109.72,315.997,116.305,315.997,124.949L315.997,124.949z"/>
		<path fill="#C32128" d="M368.839,60.726v78.223h21.613V60.726h24.291V43.847h-24.291V35.2c0-12.967,5.559-17.084,14.616-17.084
			c6.381,0,10.704,1.439,15.645,4.117l3.498-18.117C418.448,1.44,411.655,0,403.421,0c-18.115,0-34.582,8.646-34.582,34.376v9.471
			h-13.793v16.879H368.839L368.839,60.726z"/>
		<path fill="#C32128" d="M500.868,62.579c-2.472-15.438-12.558-20.998-25.731-20.998s-24.495,5.971-29.438,20.584l-2.675-18.318
			h-17.498v95.102h21.615V85.224c0-18.323,9.469-25.321,19.556-25.321c10.498,0,14.821,6.998,14.821,18.321v60.725h21.407V85.017
			c0-18.116,9.676-25.114,19.763-25.114c10.292,0,14.613,6.998,14.613,18.321v60.725h21.615v-68.34
			c0-20.379-11.939-29.027-27.79-29.027C517.748,41.581,505.808,47.552,500.868,62.579L500.868,62.579z"/>
	</g>
</g>
</svg>
