<?xml version="1.0" encoding="utf-8"?>
<!-- Generator: Adobe Illustrator 15.0.0, SVG Export Plug-In . SVG Version: 6.00 Build 0)  -->
<!DOCTYPE svg PUBLIC "-//W3C//DTD SVG 1.1//EN" "http://www.w3.org/Graphics/SVG/1.1/DTD/svg11.dtd">
<svg version="1.1" id="Layer_1" xmlns="http://www.w3.org/2000/svg" xmlns:xlink="http://www.w3.org/1999/xlink" x="0px" y="0px"
	 width="731.25px" height="158.688px" viewBox="0 0 731.25 158.688" enable-background="new 0 0 731.25 158.688"
	 xml:space="preserve">
<rect x="-548.432" y="-667.621" fill="none" width="1816.81" height="153.085"/>
<text transform="matrix(0.8696 0 0 1 -528.5024 -530.7068)" font-family="'QueenofCamelot2.0'" font-size="230">ARTISTS SPOTLIGHT</text>
<path fill="#272525" d="M-435.546,717.07l-30.176,90.74h-31.348l48.34-148.354c1.172-2.92,2.93-5.277,5.273-7.074
	c2.344-1.721,4.947-2.584,7.813-2.584c2.799,0,5.436,0.863,7.91,2.584c2.474,1.797,4.264,4.154,5.371,7.074l49.023,148.467h-31.445
	L-435.546,717.07z M-327.929,683.264v124.658h-30.664l-0.098-157.338h71.68c10.156-0.148,18.424,3.256,24.805,10.219
	c6.445,7.039,9.603,16.734,9.473,29.088c-0.131,11.605-3.809,21.604-11.035,29.984l-12.012,16.285
	c-2.084,3.221-2.377,6.889-0.879,11.006l29.492,60.756h-37.5l-22.754-51.211c-5.404-12.727-5.404-22.834,0-30.322l22.461-30.996
	c1.888-2.543,2.832-5.199,2.832-7.973c0-2.77-1.53-4.156-4.59-4.156H-327.929L-327.929,683.264z M-210.546,808.035V684.725h-31.738
	v-34.027h93.75v34.027h-30.176v123.313L-210.546,808.035L-210.546,808.035z M-133.886,808.486v-157.9h30.957v157.9H-133.886z
	 M-80.371,773.781h55.176c6.25,0,9.375-3.557,9.375-10.668s-2.084-11.346-6.25-12.691l-34.668-7.973
	c-5.469-1.572-10.059-3.818-13.77-6.738c-5.469-4.191-9.766-9.695-12.891-16.51c-3.125-6.738-4.721-14.037-4.785-21.898
	c-0.065-7.412,1.334-14.412,4.199-21.002c2.93-6.586,6.998-12.129,12.207-16.621c4.622-3.742,10.742-6.359,18.359-7.859
	c2.604-0.521,5.24-0.936,7.91-1.234h53.81v34.141h-52.539c-6.315,0-9.473,3.408-9.473,10.221c0,6.891,2.083,11.156,6.25,12.803
	l44.531,11.793c13.736,5.99,20.833,18.119,21.289,36.387c0.846,8.761-0.131,16.996-2.93,24.707
	c-2.734,7.787-6.967,14.002-12.695,18.645c-4.818,3.895-10.352,6.477-16.602,7.748c-2.409,0.602-5.111,0.896-8.105,0.896h-58.398
	V773.781z M54.883,808.035V684.725H23.145v-34.027h93.75v34.027H86.719v123.313L54.883,808.035L54.883,808.035z M134.571,773.781
	h55.176c6.25,0,9.375-3.557,9.375-10.668s-2.084-11.346-6.25-12.691l-34.668-7.973c-5.469-1.572-10.059-3.818-13.77-6.738
	c-5.469-4.191-9.766-9.695-12.891-16.51c-3.125-6.738-4.721-14.037-4.785-21.898c-0.065-7.412,1.334-14.412,4.199-21.002
	c2.93-6.586,6.998-12.129,12.207-16.621c4.622-3.742,10.742-6.359,18.359-7.859c2.604-0.521,5.24-0.936,7.91-1.234h53.809v34.141
	h-52.539c-6.315,0-9.473,3.408-9.473,10.221c0,6.891,2.083,11.156,6.25,12.803l44.531,11.793
	c13.736,5.99,20.833,18.119,21.289,36.387c0.846,8.761-0.131,16.996-2.93,24.707c-2.734,7.787-6.967,14.002-12.695,18.645
	c-4.818,3.895-10.352,6.477-16.602,7.748c-2.409,0.602-5.111,0.896-8.105,0.896H134.57L134.571,773.781L134.571,773.781z
	 M291.895,773.781h55.176c6.25,0,9.375-3.557,9.375-10.668s-2.084-11.346-6.25-12.691l-34.668-7.973
	c-5.47-1.572-10.06-3.818-13.771-6.738c-5.469-4.191-9.766-9.695-12.891-16.51c-3.125-6.738-4.721-14.037-4.785-21.898
	c-0.065-7.412,1.334-14.412,4.199-21.002c2.93-6.586,6.998-12.129,12.207-16.621c4.622-3.742,10.743-6.359,18.359-7.859
	c2.604-0.521,5.24-0.936,7.91-1.234h53.81v34.141h-52.54c-6.315,0-9.474,3.408-9.474,10.221c0,6.891,2.083,11.156,6.25,12.803
	l44.531,11.793c13.736,5.99,20.834,18.119,21.289,36.387c0.846,8.761-0.131,16.996-2.93,24.707
	c-2.734,7.787-6.969,14.002-12.695,18.645c-4.818,3.895-10.351,6.477-16.601,7.748c-2.41,0.602-5.111,0.896-8.105,0.896h-58.399
	L291.895,773.781L291.895,773.781z M457.911,726.279c13.932,0,20.898-7.076,20.898-21.229c0-14.074-6.967-21.112-20.898-21.112
	H437.5v124.099h-30.957V650.584h56.055c32.227,0,48.34,18.305,48.34,54.916s-16.113,54.918-48.34,54.918h-13.77v-34.141
	L457.911,726.279L457.911,726.279z M591.407,649.573c32.748,0,49.121,26.58,49.121,79.734c0,53.16-16.373,79.736-49.121,79.736
	h-21.582c-32.748,0-49.121-26.576-49.121-79.736c0-53.154,16.373-79.734,49.121-79.734H591.407z M582.325,683.49h-3.418
	c-17.773,0.15-26.66,12.43-26.66,36.836v19.092c0,24.033,9.18,36.051,27.539,36.051h1.66c18.359,0,27.539-12.018,27.539-36.051
	v-19.092C608.985,695.918,600.098,683.641,582.325,683.49z M680.079,808.035V684.725H648.34v-34.027h93.75v34.027h-30.176v123.313
	L680.079,808.035L680.079,808.035z M788.379,650.697v123.311h57.031v33.916h-62.793c-17.252,0-25.879-10.668-25.879-32.006V650.697
	H788.379z M860.059,808.486v-157.9h30.957v157.9H860.059z M973.731,774.344v-42.563h30.957v76.143H958.79
	c-35.416,0-53.125-26.203-53.125-78.613c0-52.404,17.709-78.611,53.125-78.611h45.898v33.916h-32.129
	c-23.568,0-35.352,12.281-35.352,36.836v16.846c0,24.033,11.328,36.051,33.984,36.051h2.539V774.344L973.731,774.344z
	 M1050.293,747.279v61.207h-30.957v-157.9h30.957v62.777h38.086v-62.777h30.957v157.9h-30.957v-61.207H1050.293L1050.293,747.279z
	 M1165.723,808.035V684.725h-31.738v-34.027h93.75v34.027h-30.176v123.313L1165.723,808.035L1165.723,808.035z"/>
<path fill="none" stroke="#FFFFFF" stroke-miterlimit="10" d="M61.523,67.271l-30.176,90.743H0L48.34,9.658
	c1.172-2.922,2.93-5.278,5.273-7.075C55.957,0.862,58.561,0,61.426,0c2.799,0,5.436,0.86,7.91,2.583
	C71.81,4.38,73.6,6.738,74.707,9.658l49.023,148.467H92.285L61.523,67.271z"/>
<path fill="none" stroke="#FFFFFF" stroke-miterlimit="10" d="M169.141,33.467v124.658h-30.664L138.379,0.786h71.68
	c10.156-0.148,18.424,3.257,24.805,10.22c6.445,7.039,9.603,16.733,9.473,29.087c-0.131,11.606-3.809,21.602-11.035,29.985
	L221.29,86.362c-2.084,3.223-2.377,6.892-0.879,11.008l29.492,60.757h-37.5l-22.754-51.211c-5.404-12.729-5.404-22.834,0-30.322
	l22.461-30.996c1.888-2.544,2.832-5.202,2.832-7.974c0-2.771-1.53-4.155-4.59-4.155L169.141,33.467L169.141,33.467z"/>
<polygon fill="none" stroke="#FFFFFF" stroke-miterlimit="10" points="286.523,158.24 286.523,34.927 254.785,34.927 254.785,0.898 
	348.535,0.898 348.535,34.926 318.359,34.926 318.359,158.238 286.523,158.238 "/>
<polygon fill="none" stroke="#272525" stroke-miterlimit="10" points="363.184,158.688 363.184,0.786 394.141,0.786 
	394.141,158.687 363.184,158.687 "/>
<path fill="none" stroke="#272525" stroke-miterlimit="10" d="M416.7,123.984h55.176c6.25,0,9.375-3.555,9.375-10.668
	c0-7.11-2.084-11.344-6.25-12.689l-34.668-7.976c-5.469-1.57-10.059-3.816-13.77-6.736c-5.471-4.191-9.768-9.694-12.893-16.511
	c-3.125-6.736-4.721-14.036-4.785-21.897c-0.064-7.412,1.334-14.411,4.199-21.001c2.93-6.587,6.998-12.129,12.207-16.621
	c4.623-3.742,10.742-6.362,18.359-7.861c2.604-0.521,5.238-0.935,7.908-1.233h53.811V34.93h-52.539
	c-6.314,0-9.473,3.408-9.473,10.22c0,6.892,2.084,11.157,6.25,12.805l44.529,11.792c13.736,5.989,20.832,18.119,21.289,36.388
	c0.848,8.76-0.131,16.996-2.93,24.707c-2.734,7.787-6.967,14.001-12.695,18.643c-4.816,3.896-10.352,6.479-16.602,7.748
	c-2.41,0.603-5.111,0.898-8.105,0.898h-58.396v-34.145h0.002V123.984z"/>
<polygon fill="none" stroke="#272525" stroke-miterlimit="10" points="551.954,158.24 551.954,34.927 520.215,34.927 520.215,0.898 
	613.965,0.898 613.965,34.926 583.79,34.926 583.79,158.238 551.954,158.238 "/>
<path fill="none" stroke="#272525" stroke-miterlimit="10" d="M631.639,123.984h55.178c6.25,0,9.375-3.555,9.375-10.668
	c0-7.11-2.084-11.344-6.25-12.689l-34.668-7.976c-5.471-1.57-10.061-3.816-13.771-6.736c-5.469-4.191-9.766-9.694-12.891-16.511
	c-3.125-6.736-4.721-14.036-4.785-21.897c-0.064-7.412,1.334-14.411,4.199-21.001c2.93-6.587,6.998-12.129,12.207-16.621
	c4.623-3.742,10.742-6.362,18.359-7.861c2.604-0.521,5.24-0.935,7.91-1.233h53.809V34.93h-52.539c-6.314,0-9.473,3.408-9.473,10.22
	c0,6.892,2.082,11.157,6.25,12.805l44.531,11.792c13.736,5.989,20.832,18.119,21.289,36.388c0.846,8.76-0.131,16.996-2.932,24.707
	c-2.732,7.787-6.969,14.001-12.693,18.643c-4.818,3.896-10.354,6.479-16.604,7.748c-2.408,0.603-5.109,0.898-8.104,0.898h-58.398
	V123.984L631.639,123.984z"/>
<rect y="0" fill="none" width="730.665" height="158.688"/>
</svg>
