<?xml version="1.0" encoding="utf-8"?>
<!-- Generator: Adobe Illustrator 15.0.0, SVG Export Plug-In . SVG Version: 6.00 Build 0)  -->
<!DOCTYPE svg PUBLIC "-//W3C//DTD SVG 1.1//EN" "http://www.w3.org/Graphics/SVG/1.1/DTD/svg11.dtd">
<svg version="1.1" id="Layer_1" xmlns="http://www.w3.org/2000/svg" xmlns:xlink="http://www.w3.org/1999/xlink" x="0px" y="0px"
	 width="458.01px" height="159.473px" viewBox="0 0 458.01 159.473" enable-background="new 0 0 458.01 159.473"
	 xml:space="preserve">
<path d="M7.814,124.209H62.99c6.25,0,9.375-3.555,9.375-10.668c0-7.111-2.084-11.344-6.25-12.691l-34.668-7.973
	c-5.469-1.572-10.059-3.818-13.77-6.738c-5.469-4.191-9.766-9.695-12.891-16.51C1.662,62.891,0.066,55.592,0.002,47.73
	c-0.065-7.412,1.334-14.412,4.199-21.002c2.93-6.586,6.998-12.129,12.207-16.621C21.03,6.365,27.15,3.746,34.768,2.246
	c2.604-0.521,5.24-0.934,7.91-1.234h53.809v34.141H43.947c-6.315,0-9.473,3.408-9.473,10.219c0,6.891,2.083,11.158,6.25,12.803
	l44.531,11.793c13.736,5.99,20.834,18.119,21.289,36.387c0.846,8.76-0.131,16.996-2.93,24.707
	c-2.734,7.787-6.967,14.002-12.695,18.643c-4.818,3.895-10.352,6.477-16.602,7.748c-2.41,0.602-5.111,0.898-8.105,0.898H7.814
	V124.209z M173.83,76.705c13.932,0,20.898-7.076,20.898-21.227c0-14.074-6.967-21.113-20.898-21.113h-20.41v124.098h-30.957V1.012
	h56.055c32.227,0,48.34,18.305,48.34,54.916s-16.113,54.918-48.34,54.918h-13.77V76.705H173.83z M307.326,0
	c32.748,0,49.121,26.58,49.121,79.736c0,53.16-16.373,79.736-49.121,79.736h-21.582c-32.748,0-49.121-26.576-49.121-79.736
	C236.623,26.58,252.996,0,285.744,0H307.326z M298.244,33.916h-3.418c-17.773,0.152-26.66,12.43-26.66,36.836v19.092
	c0,24.033,9.18,36.051,27.539,36.051h1.66c18.359,0,27.539-12.018,27.539-36.051V70.752
	C324.904,46.346,316.018,34.068,298.244,33.916z M395.998,158.463V35.152H364.26V1.123h93.75v34.029h-30.176v123.311H395.998z"/>
</svg>
