<?xml version="1.0" encoding="utf-8"?>
<!-- Generator: Adobe Illustrator 15.0.0, SVG Export Plug-In . SVG Version: 6.00 Build 0)  -->
<!DOCTYPE svg PUBLIC "-//W3C//DTD SVG 1.1//EN" "http://www.w3.org/Graphics/SVG/1.1/DTD/svg11.dtd">
<svg version="1.1" id="Layer_1" xmlns="http://www.w3.org/2000/svg" xmlns:xlink="http://www.w3.org/1999/xlink" x="0px" y="0px"
	 width="730.665px" height="159.473px" viewBox="-62.891 0 730.665 159.473" enable-background="new -62.891 0 730.665 159.473"
	 xml:space="preserve">
<rect x="-817.64" y="-412.564" fill="none" width="1816.81" height="153.085"/>
<text transform="matrix(0.8696 0 0 1 -219 -275.6501)" font-family="'QueenofCamelot2.0'" font-size="230">CHOICE</text>
<path fill="black" d="M-704.754,972.125l-30.176,90.742h-31.348l48.34-148.355c1.172-2.92,2.93-5.276,5.273-7.074
	c2.344-1.721,4.947-2.584,7.813-2.584c2.799,0,5.436,0.863,7.91,2.584c2.474,1.798,4.264,4.154,5.371,7.074l49.023,148.467h-31.445
	L-704.754,972.125z M-597.137,938.321v124.658h-30.664l-0.098-157.339h71.68c10.156-0.147,18.424,3.257,24.805,10.22
	c6.445,7.039,9.603,16.733,9.473,29.088c-0.131,11.604-3.809,21.602-11.035,29.983l-12.012,16.285
	c-2.084,3.222-2.377,6.89-0.879,11.006l29.492,60.757h-37.5l-22.754-51.212c-5.404-12.727-5.404-22.834,0-30.321l22.461-30.996
	c1.888-2.543,2.832-5.201,2.832-7.974c0-2.77-1.53-4.155-4.59-4.155H-597.137z M-479.754,1063.092V939.781h-31.738v-34.029h93.75
	v34.029h-30.176v123.311H-479.754z M-403.094,1063.541v-157.9h30.957v157.9H-403.094z M-349.579,1028.838h55.176
	c6.25,0,9.375-3.555,9.375-10.668c0-7.111-2.084-11.344-6.25-12.691l-34.668-7.973c-5.469-1.572-10.059-3.818-13.77-6.738
	c-5.469-4.19-9.766-9.694-12.891-16.51c-3.125-6.738-4.721-14.037-4.785-21.897c-0.065-7.412,1.334-14.412,4.199-21.002
	c2.93-6.587,6.998-12.13,12.207-16.621c4.622-3.742,10.742-6.361,18.359-7.861c2.604-0.521,5.24-0.934,7.91-1.234h53.809v34.142
	h-52.539c-6.315,0-9.473,3.408-9.473,10.219c0,6.891,2.083,11.158,6.25,12.803l44.531,11.793
	c13.736,5.99,20.833,18.119,21.289,36.388c0.846,8.76-0.131,16.995-2.93,24.707c-2.734,7.786-6.967,14.002-12.695,18.643
	c-4.818,3.896-10.352,6.478-16.602,7.748c-2.409,0.603-5.111,0.897-8.105,0.897h-58.398L-349.579,1028.838L-349.579,1028.838z
	 M-214.325,1063.092V939.781h-31.738v-34.029h93.75v34.029h-30.176v123.311H-214.325z M-134.637,1028.838h55.176
	c6.25,0,9.375-3.555,9.375-10.668c0-7.111-2.084-11.344-6.25-12.691l-34.668-7.973c-5.469-1.572-10.059-3.818-13.77-6.738
	c-5.469-4.19-9.766-9.694-12.891-16.51c-3.125-6.738-4.721-14.037-4.785-21.897c-0.065-7.412,1.334-14.412,4.199-21.002
	c2.93-6.587,6.998-12.13,12.207-16.621c4.622-3.742,10.742-6.361,18.359-7.861c2.604-0.521,5.24-0.934,7.91-1.234h53.809v34.142
	h-52.539c-6.315,0-9.473,3.408-9.473,10.219c0,6.891,2.083,11.158,6.25,12.803l44.531,11.793
	c13.736,5.99,20.833,18.119,21.289,36.388c0.846,8.76-0.131,16.995-2.93,24.707c-2.734,7.786-6.967,14.002-12.695,18.643
	c-4.818,3.896-10.352,6.478-16.602,7.748c-2.409,0.603-5.111,0.897-8.105,0.897h-58.398L-134.637,1028.838L-134.637,1028.838z
	 M22.687,1028.838h55.176c6.25,0,9.375-3.555,9.375-10.668c0-7.111-2.084-11.344-6.25-12.691l-34.668-7.973
	c-5.469-1.572-10.059-3.818-13.77-6.738c-5.469-4.19-9.766-9.694-12.891-16.51c-3.125-6.738-4.721-14.037-4.785-21.897
	c-0.065-7.412,1.334-14.412,4.199-21.002c2.93-6.587,6.998-12.13,12.207-16.621c4.622-3.742,10.742-6.361,18.359-7.861
	c2.604-0.521,5.24-0.934,7.91-1.234h53.809v34.142H58.82c-6.315,0-9.473,3.408-9.473,10.219c0,6.891,2.083,11.158,6.25,12.803
	l44.531,11.793c13.736,5.99,20.834,18.119,21.289,36.388c0.846,8.76-0.131,16.995-2.93,24.707
	c-2.734,7.786-6.967,14.002-12.695,18.643c-4.818,3.896-10.351,6.478-16.601,7.748c-2.41,0.603-5.111,0.897-8.105,0.897H22.687
	V1028.838z M188.703,981.334c13.932,0,20.898-7.076,20.898-21.227c0-14.074-6.967-21.113-20.898-21.113h-20.41v124.098h-30.957
	V905.641h56.055c32.227,0,48.34,18.306,48.34,54.916c0,36.611-16.113,54.918-48.34,54.918h-13.77v-34.141H188.703z M322.199,904.629
	c32.748,0,49.121,26.58,49.121,79.736c0,53.16-16.373,79.736-49.121,79.736h-21.582c-32.748,0-49.121-26.576-49.121-79.736
	c0-53.156,16.373-79.736,49.121-79.736H322.199z M313.117,938.545h-3.418c-17.773,0.152-26.66,12.43-26.66,36.836v19.092
	c0,24.033,9.18,36.051,27.539,36.051h1.66c18.359,0,27.539-12.018,27.539-36.051v-19.092
	C339.777,950.975,330.89,938.698,313.117,938.545z M410.871,1063.092V939.781h-31.738v-34.029h93.75v34.029h-30.176v123.311H410.871
	z M519.171,905.752v123.311h57.031v33.916H513.41c-17.252,0-25.879-10.668-25.879-32.006V905.752H519.171z M590.851,1063.541v-157.9
	h30.957v157.9H590.851z M704.523,1029.401v-42.564h30.957v76.143h-45.898c-35.416,0-53.125-26.202-53.125-78.612
	c0-52.406,17.709-78.613,53.125-78.613h45.898v33.916h-32.129c-23.568,0-35.352,12.281-35.352,36.836v16.847
	c0,24.032,11.328,36.051,33.982,36.051h2.541V1029.401z M781.085,1002.334v61.207h-30.957v-157.9h30.957v62.777h38.086v-62.777
	h30.957v157.9h-30.957v-61.207H781.085z M896.515,1063.092V939.781h-31.738v-34.029h93.75v34.029h-30.176v123.311H896.515z"/>
<g>
	<g>
		<path d="M-9.766,1.123h42.969v33.916H4.004c-23.569-0.149-35.352,12.129-35.352,36.836c0,5.242,0,10.856,0,16.846
			c0,24.033,11.783,36.05,35.352,36.05h29.199v33.579H-9.766c-35.417,0-53.125-26.204-53.125-78.614
			C-62.891,27.329-45.183,1.123-9.766,1.123z"/>
		<path d="M78.808,97.705v61.206H47.851V1.011h30.957v62.778h38.086V1.011h30.957v157.9h-30.957V97.705H78.808z"/>
		<path d="M233.202,0c32.749,0,49.122,26.58,49.122,79.735c0,53.159-16.373,79.736-49.122,79.736H211.62
			c-32.748,0-49.121-26.578-49.121-79.736C162.499,26.58,178.872,0,211.62,0H233.202z M224.12,33.916h-3.418
			c-17.773,0.15-26.66,12.429-26.66,36.836v19.092c0,24.033,9.18,36.05,27.539,36.05h1.66c18.36,0,27.54-12.017,27.54-36.05V70.752
			C250.78,46.345,241.894,34.067,224.12,33.916z"/>
		<path d="M296.972,158.911V1.011h30.958v157.9H296.972z"/>
		<path d="M395.703,1.123h42.969v33.916h-29.199c-23.568-0.149-35.352,12.129-35.352,36.836c0,5.242,0,10.856,0,16.846
			c0,24.033,11.783,36.05,35.352,36.05h29.199v33.579h-42.969c-35.416,0-53.125-26.204-53.125-78.613
			C342.578,27.329,360.287,1.123,395.703,1.123z"/>
		<path d="M541.992,158.35h-62.793c-17.252,0-25.879-10.669-25.879-32.007V29.536c0-18.941,8.627-28.413,25.879-28.413h62.793
			v33.804H484.96v28.188h47.363v33.467H484.96v27.852h57.031V158.35L541.992,158.35z"/>
	</g>
	<rect x="-62.891" y="0.393" fill="none" width="730.665" height="158.688"/>
</g>
</svg>
