<?xml version="1.0" encoding="utf-8"?>
<!-- Generator: Adobe Illustrator 15.0.0, SVG Export Plug-In . SVG Version: 6.00 Build 0)  -->
<!DOCTYPE svg PUBLIC "-//W3C//DTD SVG 1.1//EN" "http://www.w3.org/Graphics/SVG/1.1/DTD/svg11.dtd">
<svg version="1.1" id="Layer_1" xmlns="http://www.w3.org/2000/svg" xmlns:xlink="http://www.w3.org/1999/xlink" x="0px" y="0px"
	 width="730.665px" height="158.688px" viewBox="0 0 730.665 158.688" enable-background="new 0 0 730.665 158.688"
	 xml:space="preserve">
<rect x="-548.432" y="-667.621" fill="none" width="1816.81" height="153.085"/>
<text transform="matrix(1 0 0 1.15 -528.5029 -530.707)" font-family="'QueenofCamelot2.0'" font-size="200">ARTISTS SPOTLIGHT</text>
<path fill="#272525" d="M-435.546,717.068l-30.176,90.742h-31.348l48.34-148.355c1.172-2.92,2.93-5.277,5.273-7.074
	c2.344-1.721,4.947-2.584,7.813-2.584c2.799,0,5.436,0.863,7.91,2.584c2.474,1.797,4.264,4.154,5.371,7.074l49.023,148.467h-31.445
	L-435.546,717.068z M-327.929,683.264v124.658h-30.664l-0.098-157.338h71.68c10.156-0.148,18.424,3.256,24.805,10.219
	c6.445,7.039,9.603,16.734,9.473,29.088c-0.131,11.605-3.809,21.602-11.035,29.984l-12.012,16.285
	c-2.084,3.221-2.377,6.889-0.879,11.006l29.492,60.756h-37.5l-22.754-51.211c-5.404-12.727-5.404-22.834,0-30.322l22.461-30.996
	c1.888-2.543,2.832-5.201,2.832-7.973c0-2.77-1.53-4.156-4.59-4.156H-327.929z M-210.546,808.035V684.725h-31.738v-34.029h93.75
	v34.029h-30.176v123.311H-210.546z M-133.886,808.484v-157.9h30.957v157.9H-133.886z M-80.371,773.781h55.176
	c6.25,0,9.375-3.555,9.375-10.668c0-7.111-2.084-11.344-6.25-12.691l-34.668-7.973c-5.469-1.572-10.059-3.818-13.77-6.738
	c-5.469-4.191-9.766-9.695-12.891-16.51c-3.125-6.738-4.721-14.037-4.785-21.898c-0.065-7.412,1.334-14.412,4.199-21.002
	c2.93-6.586,6.998-12.129,12.207-16.621c4.622-3.742,10.742-6.361,18.359-7.861c2.604-0.521,5.24-0.934,7.91-1.234H8.301v34.141
	h-52.539c-6.315,0-9.473,3.408-9.473,10.219c0,6.891,2.083,11.158,6.25,12.803l44.531,11.793
	c13.736,5.99,20.833,18.119,21.289,36.387c0.846,8.76-0.131,16.996-2.93,24.707c-2.734,7.787-6.967,14.002-12.695,18.643
	c-4.818,3.895-10.352,6.477-16.602,7.748c-2.409,0.602-5.111,0.898-8.105,0.898h-58.398V773.781z M54.883,808.035V684.725H23.145
	v-34.029h93.75v34.029H86.719v123.311H54.883z M134.571,773.781h55.176c6.25,0,9.375-3.555,9.375-10.668
	c0-7.111-2.084-11.344-6.25-12.691l-34.668-7.973c-5.469-1.572-10.059-3.818-13.77-6.738c-5.469-4.191-9.766-9.695-12.891-16.51
	c-3.125-6.738-4.721-14.037-4.785-21.898c-0.065-7.412,1.334-14.412,4.199-21.002c2.93-6.586,6.998-12.129,12.207-16.621
	c4.622-3.742,10.742-6.361,18.359-7.861c2.604-0.521,5.24-0.934,7.91-1.234h53.809v34.141h-52.539
	c-6.315,0-9.473,3.408-9.473,10.219c0,6.891,2.083,11.158,6.25,12.803l44.531,11.793c13.736,5.99,20.833,18.119,21.289,36.387
	c0.846,8.76-0.131,16.996-2.93,24.707c-2.734,7.787-6.967,14.002-12.695,18.643c-4.818,3.895-10.352,6.477-16.602,7.748
	c-2.409,0.602-5.111,0.898-8.105,0.898h-58.398V773.781z M291.895,773.781h55.176c6.25,0,9.375-3.555,9.375-10.668
	c0-7.111-2.084-11.344-6.25-12.691l-34.668-7.973c-5.469-1.572-10.059-3.818-13.77-6.738c-5.469-4.191-9.766-9.695-12.891-16.51
	c-3.125-6.738-4.721-14.037-4.785-21.898c-0.065-7.412,1.334-14.412,4.199-21.002c2.93-6.586,6.998-12.129,12.207-16.621
	c4.622-3.742,10.742-6.361,18.359-7.861c2.604-0.521,5.24-0.934,7.91-1.234h53.809v34.141h-52.539
	c-6.315,0-9.473,3.408-9.473,10.219c0,6.891,2.083,11.158,6.25,12.803l44.531,11.793c13.736,5.99,20.834,18.119,21.289,36.387
	c0.846,8.76-0.131,16.996-2.93,24.707c-2.734,7.787-6.967,14.002-12.695,18.643c-4.818,3.895-10.351,6.477-16.601,7.748
	c-2.41,0.602-5.111,0.898-8.105,0.898h-58.399V773.781z M457.911,726.277c13.932,0,20.898-7.076,20.898-21.227
	c0-14.074-6.967-21.113-20.898-21.113H437.5v124.098h-30.957V650.584h56.055c32.227,0,48.34,18.305,48.34,54.916
	s-16.113,54.918-48.34,54.918h-13.77v-34.141H457.911z M591.407,649.572c32.748,0,49.121,26.58,49.121,79.736
	c0,53.16-16.373,79.736-49.121,79.736h-21.582c-32.748,0-49.121-26.576-49.121-79.736c0-53.156,16.373-79.736,49.121-79.736H591.407
	z M582.325,683.488h-3.418c-17.773,0.152-26.66,12.43-26.66,36.836v19.092c0,24.033,9.18,36.051,27.539,36.051h1.66
	c18.359,0,27.539-12.018,27.539-36.051v-19.092C608.985,695.918,600.098,683.641,582.325,683.488z M680.079,808.035V684.725H648.34
	v-34.029h93.75v34.029h-30.176v123.311H680.079z M788.379,650.695v123.311h57.031v33.916h-62.793
	c-17.252,0-25.879-10.668-25.879-32.006V650.695H788.379z M860.059,808.484v-157.9h30.957v157.9H860.059z M973.731,774.344v-42.564
	h30.957v76.143H958.79c-35.416,0-53.125-26.203-53.125-78.613c0-52.406,17.709-78.613,53.125-78.613h45.898v33.916h-32.129
	c-23.568,0-35.352,12.281-35.352,36.836v16.846c0,24.033,11.328,36.051,33.984,36.051H973.731z M1050.293,747.277v61.207h-30.957
	v-157.9h30.957v62.777h38.086v-62.777h30.957v157.9h-30.957v-61.207H1050.293z M1165.723,808.035V684.725h-31.738v-34.029h93.75
	v34.029h-30.176v123.311H1165.723z"/>
<g>
	<path fill="none" stroke="#272525" stroke-width="1" stroke-miterlimit="10" d="M61.523,67.271l-30.176,90.743H0L48.34,9.658
		c1.172-2.92,2.93-5.278,5.273-7.075C55.957,0.862,58.561,0,61.426,0c2.799,0,5.436,0.862,7.91,2.583
		C71.81,4.38,73.6,6.738,74.707,9.658l49.023,148.467H92.285L61.523,67.271z M169.141,33.467v124.658h-30.664L138.379,0.786h71.68
		c10.156-0.148,18.424,3.257,24.805,10.22c6.445,7.039,9.603,16.733,9.473,29.087c-0.131,11.606-3.809,21.602-11.035,29.985
		l-12.012,16.284c-2.084,3.221-2.377,6.89-0.879,11.006l29.492,60.757h-37.5l-22.754-51.211c-5.404-12.727-5.404-22.834,0-30.322
		l22.461-30.996c1.888-2.544,2.832-5.202,2.832-7.974c0-2.769-1.53-4.155-4.59-4.155H169.141z M286.523,158.238V34.927h-31.738
		V0.898h93.75v34.028h-30.176v123.312H286.523z M363.184,158.688V0.786h30.957v157.901H363.184z M416.699,123.984h55.176
		c6.25,0,9.375-3.555,9.375-10.668c0-7.112-2.084-11.344-6.25-12.691l-34.668-7.974c-5.469-1.572-10.059-3.818-13.77-6.738
		c-5.469-4.191-9.766-9.694-12.891-16.509c-3.125-6.738-4.721-14.038-4.785-21.899c-0.065-7.412,1.334-14.411,4.199-21.001
		c2.93-6.587,6.998-12.129,12.207-16.621c4.622-3.742,10.742-6.362,18.359-7.861c2.604-0.522,5.24-0.935,7.91-1.235h53.809v34.141
		h-52.539c-6.315,0-9.473,3.408-9.473,10.22c0,6.89,2.083,11.157,6.25,12.803l44.531,11.792
		c13.736,5.991,20.833,18.12,21.289,36.388c0.846,8.76-0.131,16.996-2.93,24.707c-2.734,7.787-6.967,14.001-12.695,18.643
		c-4.818,3.894-10.352,6.477-16.602,7.748c-2.409,0.601-5.111,0.898-8.105,0.898h-58.398V123.984z M551.953,158.238V34.927h-31.738
		V0.898h93.75v34.028h-30.176v123.312H551.953z M631.64,123.984h55.176c6.25,0,9.375-3.555,9.375-10.668
		c0-7.112-2.084-11.344-6.25-12.691l-34.668-7.974c-5.469-1.572-10.059-3.818-13.77-6.738c-5.469-4.191-9.766-9.694-12.891-16.509
		c-3.125-6.738-4.721-14.038-4.785-21.899c-0.065-7.412,1.334-14.411,4.199-21.001c2.93-6.587,6.998-12.129,12.207-16.621
		c4.622-3.742,10.742-6.362,18.359-7.861c2.604-0.522,5.24-0.935,7.91-1.235h53.809v34.141h-52.539
		c-6.315,0-9.473,3.408-9.473,10.22c0,6.89,2.083,11.157,6.25,12.803l44.531,11.792c13.736,5.991,20.833,18.12,21.289,36.388
		c0.846,8.76-0.131,16.996-2.93,24.707c-2.734,7.787-6.967,14.001-12.695,18.643c-4.818,3.894-10.352,6.477-16.602,7.748
		c-2.409,0.601-5.111,0.898-8.105,0.898H631.64V123.984z"/>
	<rect fill="none" width="730.665" height="158.688"/>
</g>
</svg>
