<?xml version="1.0" encoding="utf-8"?>
<!-- Generator: Adobe Illustrator 15.0.0, SVG Export Plug-In . SVG Version: 6.00 Build 0)  -->
<!DOCTYPE svg PUBLIC "-//W3C//DTD SVG 1.1//EN" "http://www.w3.org/Graphics/SVG/1.1/DTD/svg11.dtd">
<svg version="1.1" id="Layer_1" xmlns="http://www.w3.org/2000/svg" xmlns:xlink="http://www.w3.org/1999/xlink" x="0px" y="0px"
	 width="730.665px" height="79.344px" viewBox="0 0 730.665 79.344" enable-background="new 0 0 730.665 79.344"
	 xml:space="preserve">
<rect x="-548.432" y="-746.965" fill="none" width="1816.81" height="153.085"/>
<text transform="matrix(1 0 0 1.15 -528.5029 -610.0508)" font-family="'QueenofCamelot2.0'" font-size="200">ARTISTS SPOTLIGHT</text>
<path fill="#272525" d="M-435.546,637.725l-30.176,90.742h-31.348l48.34-148.355c1.172-2.92,2.93-5.277,5.273-7.074
	c2.344-1.721,4.947-2.584,7.813-2.584c2.799,0,5.436,0.863,7.91,2.584c2.474,1.797,4.264,4.154,5.371,7.074l49.023,148.467h-31.445
	L-435.546,637.725z M-327.929,603.92v124.658h-30.664l-0.098-157.338h71.68c10.156-0.148,18.424,3.256,24.805,10.219
	c6.445,7.039,9.603,16.734,9.473,29.088c-0.131,11.605-3.809,21.602-11.035,29.984l-12.012,16.285
	c-2.084,3.221-2.377,6.889-0.879,11.006l29.492,60.756h-37.5l-22.754-51.211c-5.404-12.727-5.404-22.834,0-30.322l22.461-30.996
	c1.888-2.543,2.832-5.201,2.832-7.973c0-2.77-1.53-4.156-4.59-4.156H-327.929z M-210.546,728.691V605.381h-31.738v-34.029h93.75
	v34.029h-30.176v123.311H-210.546z M-133.886,729.141v-157.9h30.957v157.9H-133.886z M-80.371,694.438h55.176
	c6.25,0,9.375-3.555,9.375-10.668c0-7.111-2.084-11.344-6.25-12.691l-34.668-7.973c-5.469-1.572-10.059-3.818-13.77-6.738
	c-5.469-4.191-9.766-9.695-12.891-16.51c-3.125-6.738-4.721-14.037-4.785-21.898c-0.065-7.412,1.334-14.412,4.199-21.002
	c2.93-6.586,6.998-12.129,12.207-16.621c4.622-3.742,10.742-6.361,18.359-7.861c2.604-0.521,5.24-0.934,7.91-1.234H8.301v34.141
	h-52.539c-6.315,0-9.473,3.408-9.473,10.219c0,6.891,2.083,11.158,6.25,12.803l44.531,11.793
	c13.736,5.99,20.833,18.119,21.289,36.387c0.846,8.76-0.131,16.996-2.93,24.707c-2.734,7.787-6.967,14.002-12.695,18.643
	c-4.818,3.895-10.352,6.477-16.602,7.748c-2.409,0.602-5.111,0.898-8.105,0.898h-58.398V694.438z M54.883,728.691V605.381H23.145
	v-34.029h93.75v34.029H86.719v123.311H54.883z M134.571,694.438h55.176c6.25,0,9.375-3.555,9.375-10.668
	c0-7.111-2.084-11.344-6.25-12.691l-34.668-7.973c-5.469-1.572-10.059-3.818-13.77-6.738c-5.469-4.191-9.766-9.695-12.891-16.51
	c-3.125-6.738-4.721-14.037-4.785-21.898c-0.065-7.412,1.334-14.412,4.199-21.002c2.93-6.586,6.998-12.129,12.207-16.621
	c4.622-3.742,10.742-6.361,18.359-7.861c2.604-0.521,5.24-0.934,7.91-1.234h53.809v34.141h-52.539
	c-6.315,0-9.473,3.408-9.473,10.219c0,6.891,2.083,11.158,6.25,12.803l44.531,11.793c13.736,5.99,20.833,18.119,21.289,36.387
	c0.846,8.76-0.131,16.996-2.93,24.707c-2.734,7.787-6.967,14.002-12.695,18.643c-4.818,3.895-10.352,6.477-16.602,7.748
	c-2.409,0.602-5.111,0.898-8.105,0.898h-58.398V694.438z M291.895,694.438h55.176c6.25,0,9.375-3.555,9.375-10.668
	c0-7.111-2.084-11.344-6.25-12.691l-34.668-7.973c-5.469-1.572-10.059-3.818-13.77-6.738c-5.469-4.191-9.766-9.695-12.891-16.51
	c-3.125-6.738-4.721-14.037-4.785-21.898c-0.065-7.412,1.334-14.412,4.199-21.002c2.93-6.586,6.998-12.129,12.207-16.621
	c4.622-3.742,10.742-6.361,18.359-7.861c2.604-0.521,5.24-0.934,7.91-1.234h53.809v34.141h-52.539
	c-6.315,0-9.473,3.408-9.473,10.219c0,6.891,2.083,11.158,6.25,12.803l44.531,11.793c13.736,5.99,20.834,18.119,21.289,36.387
	c0.846,8.76-0.131,16.996-2.93,24.707c-2.734,7.787-6.967,14.002-12.695,18.643c-4.818,3.895-10.351,6.477-16.601,7.748
	c-2.41,0.602-5.111,0.898-8.105,0.898h-58.399V694.438z M457.911,646.934c13.932,0,20.898-7.076,20.898-21.227
	c0-14.074-6.967-21.113-20.898-21.113H437.5v124.098h-30.957V571.24h56.055c32.227,0,48.34,18.305,48.34,54.916
	s-16.113,54.918-48.34,54.918h-13.77v-34.141H457.911z M591.407,570.229c32.748,0,49.121,26.58,49.121,79.736
	c0,53.16-16.373,79.736-49.121,79.736h-21.582c-32.748,0-49.121-26.576-49.121-79.736c0-53.156,16.373-79.736,49.121-79.736H591.407
	z M582.325,604.145h-3.418c-17.773,0.152-26.66,12.43-26.66,36.836v19.092c0,24.033,9.18,36.051,27.539,36.051h1.66
	c18.359,0,27.539-12.018,27.539-36.051V640.98C608.985,616.574,600.098,604.297,582.325,604.145z M680.079,728.691V605.381H648.34
	v-34.029h93.75v34.029h-30.176v123.311H680.079z M788.379,571.352v123.311h57.031v33.916h-62.793
	c-17.252,0-25.879-10.668-25.879-32.006V571.352H788.379z M860.059,729.141v-157.9h30.957v157.9H860.059z M973.731,695v-42.564
	h30.957v76.143H958.79c-35.416,0-53.125-26.203-53.125-78.613c0-52.406,17.709-78.613,53.125-78.613h45.898v33.916h-32.129
	c-23.568,0-35.352,12.281-35.352,36.836v16.846c0,24.033,11.328,36.051,33.984,36.051H973.731z M1050.293,667.934v61.207h-30.957
	v-157.9h30.957v62.777h38.086V571.24h30.957v157.9h-30.957v-61.207H1050.293z M1165.723,728.691V605.381h-31.738v-34.029h93.75
	v34.029h-30.176v123.311H1165.723z"/>
<g>
	<rect fill="none" width="730.665" height="79.344"/>
	<g>
		<polygon fill="#FFFFFF" points="138.428,0 138.477,78.781 169.141,78.781 169.141,0 		"/>
		<path fill="#FFFFFF" d="M221.289,7.019L226.466,0h-38.493c-3.648,7.151-3.094,16.34,1.675,27.57l22.754,51.211h37.5L220.41,18.024
			C218.912,13.908,219.205,10.239,221.289,7.019z"/>
		<polygon fill="#FFFFFF" points="25.634,0 0,78.67 31.348,78.67 57.509,0 		"/>
		<polygon fill="#FFFFFF" points="65.611,0 92.285,78.781 123.73,78.781 97.717,0 		"/>
		<rect x="363.184" fill="#FFFFFF" width="30.957" height="79.344"/>
		<path fill="#FFFFFF" d="M721.941,0h-87.178c2.007,2.458,4.245,4.657,6.74,6.569c3.711,2.92,8.301,5.166,13.77,6.738l34.668,7.974
			c4.166,1.348,6.25,5.579,6.25,12.691c0,7.113-3.125,10.668-9.375,10.668H631.64v34.141h58.398c2.994,0,5.696-0.298,8.105-0.898
			c6.25-1.271,11.783-3.854,16.602-7.748c5.729-4.642,9.961-10.855,12.695-18.643c2.799-7.711,3.775-15.947,2.93-24.707
			C730.089,15.52,727.274,6.597,721.941,0z"/>
		<rect x="286.523" fill="#FFFFFF" width="31.836" height="78.895"/>
		<rect x="551.953" fill="#FFFFFF" width="31.836" height="78.895"/>
		<path fill="#FFFFFF" d="M507,0h-87.178c2.007,2.458,4.245,4.657,6.74,6.569c3.711,2.92,8.301,5.166,13.77,6.738L475,21.281
			c4.166,1.348,6.25,5.579,6.25,12.691c0,7.113-3.125,10.668-9.375,10.668h-55.176v34.141h58.398c2.994,0,5.696-0.298,8.105-0.898
			c6.25-1.271,11.783-3.854,16.602-7.748c5.729-4.642,9.961-10.855,12.695-18.643c2.799-7.711,3.775-15.947,2.93-24.707
			C515.148,15.52,512.333,6.597,507,0z"/>
	</g>
</g>
</svg>
