<?xml version="1.0" encoding="utf-8"?>
<!-- Generator: Adobe Illustrator 15.0.0, SVG Export Plug-In . SVG Version: 6.00 Build 0)  -->
<!DOCTYPE svg PUBLIC "-//W3C//DTD SVG 1.1//EN" "http://www.w3.org/Graphics/SVG/1.1/DTD/svg11.dtd">
<svg version="1.1" id="Layer_1" xmlns="http://www.w3.org/2000/svg" xmlns:xlink="http://www.w3.org/1999/xlink" x="0px" y="0px"
	 width="410.1px" height="110.9px" viewBox="8.2 7.9 410.1 110.9" enable-background="new 8.2 7.9 410.1 110.9"
	 xml:space="preserve">
<path fill="#F80046" d="M275.4,75.6c-4.4,0-7.301-1.3-10.301-6C262.2,64.9,257.2,57,257.2,57l21.5-30H260l-17.1,23.8V7.9H227.3v82.4
	H242.9V64.2c0,0,8.699,13.7,11.399,18c4.3,6.5,10,8.3,19.4,8.3h4.6V75.6H275.4z M415,75.6c-4.4,0-7.3-1.3-10.3-6
	c-3-4.699-7.9-12.6-7.9-12.6l21.5-30h-18.7l-17.1,23.8V7.9h-15.6v82.4h15.6V64.2c0,0,8.7,13.7,11.4,18c4.3,6.5,10,8.3,19.399,8.3
	h4.601V75.6H415z M32.3,91c-9.7,0-17.6-1.8-24.1-8.4l10-10c3.3,3.301,9.1,4.5,14.2,4.5c6.2,0,9.1-2,9.1-5.699
	c0-1.5-0.4-2.801-1.2-3.801c-0.8-0.8-2.1-1.399-4.2-1.699L28.4,64.8c-5.6-0.8-9.9-2.7-12.7-5.6c-2.9-3-4.4-7.3-4.4-12.7
	c0-11.6,8.7-20.1,23.2-20.1c9.1,0,16,2.1,21.4,7.6l-9.8,9.8c-4-4-9.3-3.7-12-3.7c-5.4,0-7.7,3.1-7.7,5.9c0,0.8,0.3,2,1.2,2.9
	c0.8,0.8,2.1,1.6,4.4,1.9l7.7,1.1c5.7,0.8,9.8,2.6,12.5,5.3c3.4,3.3,4.7,8,4.7,13.899C56.8,83.9,45.7,91,32.3,91z M104.4,83.9
	c-4.6,4.6-10,7.1-17.7,7.1c-7.8,0-13.1-2.5-17.7-7.1c-6.7-6.7-6.4-15.601-6.4-25.2c0-9.5-0.3-18.5,6.4-25.1c4.6-4.6,10-7.1,17.7-7.1
	c7.8,0,13.1,2.5,17.7,7.1c6.7,6.7,6.4,15.6,6.4,25.1S111,77.2,104.4,83.9z M92.9,43.1c-1.2-1.5-3.4-2.8-6.2-2.8
	c-2.9,0-5.1,1.2-6.2,2.8c-1.4,1.9-2.3,4-2.3,15.6c0,11.6,0.9,13.7,2.3,15.5c1.2,1.5,3.4,2.899,6.2,2.899c2.9,0,5.1-1.3,6.2-2.899
	c1.4-1.9,2.3-3.9,2.3-15.5C95.2,47.1,94.3,45,92.9,43.1z M337.3,91.1c-7.399,0-13-2.5-17.6-7.1c-6.7-6.7-6.4-15.6-6.4-25.2
	c0-9.5-0.3-18.5,6.4-25.1c4.6-4.6,10.2-7.1,17.6-7.1c12,0,21.7,6.7,24.101,20.7h-15.9c-1-3.6-2.9-6.8-8.1-6.8
	c-2.9,0-5,1.2-6.101,2.7c-1.399,1.9-2.399,4.1-2.399,15.7s1,13.8,2.399,15.7c1.2,1.5,3.3,2.7,6.101,2.7c5.199,0,7.1-3.2,8.1-6.8
	h15.9C359.1,84.4,349.3,91.1,337.3,91.1L337.3,91.1z M204,95.1c0,8.4-5.8,9.801-9.5,9.801h-5.7V118.8h6.9c15.5-0.1,24-8.2,24-23.8
	L219.6,48.1c0-7.3-3.399-13.1-8.3-16.9c-4.4-3.3-10-5-15.6-5c-7.4,0-13,2.5-17.6,7.1c-6.7,6.7-6.4,15.6-6.4,25.1
	c0,9.5-0.3,18.5,6.4,25.2c4.6,4.601,10.2,7.101,17.6,7.101c2.9,0,5.5-0.601,8.3-1.9V95.1L204,95.1z M195.8,77.1
	c-2.9,0-5-1.199-6.1-2.699c-1.4-1.9-2.4-4.101-2.4-15.7c0-11.6,1-13.8,2.4-15.7c1.2-1.5,3.3-2.7,6.1-2.7c5.1,0,7.1,3.1,8.1,6.6v23.6
	C202.9,74,200.9,77.1,195.8,77.1z M165.4,54.5c0-6.5,0.3-14.3-6.4-20.9c-4.6-4.6-10-7.1-17.7-7.1c-7.8,0-13.1,2.5-17.7,7.1
	c-6.7,6.7-6.4,14.9-6.4,20.9v36h15.6v-36c0-8.1,0.9-9.3,2.3-11.2c1.2-1.5,3.4-3,6.2-3c2.9,0,5.1,1.5,6.2,3c1.4,1.9,2.3,2.9,2.3,11.2
	v35.9h15.6V54.5L165.4,54.5z M298.4,20.6V8h-15.5v12.6H298.4z M282.5,27.1h15.9v38.8c0,6.899,4.399,9.8,9.6,9.8h3.6v14.8h-5.1
	c-15.8-0.1-24-8.8-24-24V27.1z"/>
</svg>
