<?xml version="1.0" encoding="utf-8"?>
<!-- Generator: Adobe Illustrator 15.0.0, SVG Export Plug-In . SVG Version: 6.00 Build 0)  -->
<!DOCTYPE svg PUBLIC "-//W3C//DTD SVG 1.1//EN" "http://www.w3.org/Graphics/SVG/1.1/DTD/svg11.dtd">
<svg version="1.1" id="Layer_1" xmlns="http://www.w3.org/2000/svg" xmlns:xlink="http://www.w3.org/1999/xlink" x="0px" y="0px"
	 width="605.625px" height="55.938px" viewBox="0 0 605.625 55.938" enable-background="new 0 0 605.625 55.938"
	 xml:space="preserve">
<g>
	<path fill="#FFFFFF" d="M70.313,0.742L55.234,51.68c-0.365,1.224-1.055,2.228-2.07,3.008c-1.015,0.781-2.123,1.172-3.32,1.172
		c-1.172,0-2.24-0.364-3.203-1.094c-0.938-0.729-1.615-1.691-2.031-2.891l-9.453-26.523l-9.453,26.523
		c-0.417,1.198-1.12,2.162-2.109,2.891c-0.99,0.729-2.07,1.094-3.242,1.094c-1.198,0-2.292-0.391-3.281-1.172
		c-0.964-0.755-1.628-1.758-1.992-3.008L0,0.781h12.734l7.969,28.594l9.219-23.75c0.391-1.198,1.067-2.161,2.031-2.892
		c0.989-0.729,2.07-1.094,3.242-1.094c1.146,0,2.2,0.365,3.164,1.094c0.963,0.73,1.641,1.693,2.032,2.892l9.219,23.75l7.969-28.633
		H70.313z"/>
	<path fill="#FFFFFF" d="M88.555,34.375v21.289H76.172V0.742h12.383v21.836h15.234V0.742h12.383v54.922h-12.383V34.375H88.555z"/>
	<path fill="#FFFFFF" d="M146.641,23.867L134.57,55.43h-12.539l19.336-51.602c0.469-1.017,1.172-1.836,2.109-2.461
		c0.938-0.6,1.979-0.898,3.125-0.898c1.119,0,2.174,0.3,3.164,0.898c0.989,0.625,1.705,1.444,2.148,2.461l19.609,51.641h-12.578
		L146.641,23.867z"/>
	<path fill="#FFFFFF" d="M178.359,55.508V12.617h-12.695V0.781h37.5v11.836h-12.07v42.891H178.359z"/>
	<path fill="#FFFFFF" d="M210.234,43.594h22.07c2.5,0,3.75-1.237,3.75-3.711s-0.834-3.945-2.5-4.414l-13.867-2.773
		c-2.188-0.547-4.023-1.327-5.508-2.344c-2.188-1.458-3.906-3.372-5.156-5.742c-1.25-2.344-1.889-4.883-1.914-7.616
		c-0.026-2.578,0.533-5.014,1.68-7.306c1.172-2.292,2.799-4.219,4.883-5.78c1.849-1.303,4.297-2.214,7.344-2.734
		c1.041-0.182,2.096-0.325,3.164-0.43h21.523v11.875h-21.016c-2.526,0-3.789,1.185-3.789,3.555c0,2.396,0.833,3.88,2.5,4.453
		l17.813,4.102c5.494,2.083,8.333,6.302,8.516,12.656c0.338,3.047-0.053,5.912-1.172,8.594c-1.094,2.708-2.787,4.87-5.078,6.484
		c-1.928,1.354-4.141,2.253-6.641,2.695c-0.964,0.208-2.045,0.313-3.242,0.313h-23.359L210.234,43.594L210.234,43.594z"/>
	<path fill="#FFFFFF" d="M282.695,55.508V12.617H270V0.781h37.5v11.836h-12.07v42.891H282.695z"/>
	<path fill="#FFFFFF" d="M325.664,12.109v43.359h-12.266l-0.039-54.727h28.672c4.063-0.053,7.369,1.133,9.922,3.555
		c2.578,2.448,3.842,5.82,3.789,10.117c-0.053,4.037-1.523,7.513-4.414,10.43l-4.805,5.664c-0.834,1.12-0.951,2.396-0.353,3.828
		l11.797,21.133h-15l-9.102-17.813c-2.162-4.427-2.162-7.941,0-10.547l8.983-10.78c0.757-0.886,1.134-1.811,1.134-2.773
		s-0.611-1.445-1.836-1.445H325.664z"/>
	<path fill="#FFFFFF" d="M395.39,55.469h-25.116c-6.9,0-10.353-3.711-10.353-11.133V10.664c0-6.588,3.451-9.883,10.353-9.883h25.116
		v11.758h-22.813v9.805h18.945v11.641h-18.945v9.688h22.813V55.469z"/>
	<path fill="#FFFFFF" d="M443.867,0.703v49.102c0,1.328-0.392,2.526-1.172,3.594c-0.756,1.068-1.771,1.811-3.047,2.228
		c-1.25,0.417-2.515,0.417-3.789,0c-1.25-0.392-2.267-1.12-3.047-2.188l-19.298-27.03v29.102H401.25V6.133
		c0-1.302,0.391-2.5,1.172-3.594c0.781-1.067,1.797-1.811,3.047-2.228s2.515-0.417,3.789,0c1.25,0.392,2.279,1.12,3.086,2.188
		l19.258,26.992V0.703H443.867z"/>
	<path fill="#FFFFFF" d="M470.664,43.594c6.615,0,9.922-5.234,9.922-15.703c0-10.391-3.307-15.586-9.922-15.586h-8.633v21.094
		h-0.078v22.07h-12.228V0.742l22.813-0.039c13.932,0,20.898,9.18,20.898,27.539c0,18.125-6.968,27.2-20.898,27.227h-6.133V43.594
		H470.664z"/>
	<path fill="#FFFFFF" d="M499.296,55.664V0.742h12.383v54.922H499.296z"/>
	<path fill="#FFFFFF" d="M560.156,0.703v49.102c0,1.328-0.392,2.526-1.172,3.594c-0.756,1.068-1.771,1.811-3.047,2.228
		c-1.25,0.417-2.515,0.417-3.789,0c-1.25-0.392-2.267-1.12-3.048-2.188l-19.297-27.03v29.102h-12.266V6.133
		c0-1.302,0.391-2.5,1.172-3.594c0.781-1.067,1.797-1.811,3.047-2.228s2.515-0.417,3.789,0c1.25,0.392,2.279,1.12,3.086,2.188
		l19.258,26.992V0.703H560.156z"/>
	<path fill="#FFFFFF" d="M593.242,43.789V28.984h12.383v26.484h-18.359c-14.166,0-21.25-9.114-21.25-27.344S573.1,0.78,587.266,0.78
		h18.359v11.798h-12.852c-9.429,0-14.142,4.271-14.142,12.813v5.859c0,8.358,4.531,12.539,13.594,12.539L593.242,43.789
		L593.242,43.789z"/>
</g>
</svg>
